<svg xmlns="http://www.w3.org/2000/svg" width="20.551" height="10.728" viewBox="0 0 20.551 10.728">
    <g>
        <path fill="#ffc107" d="M19.8 117.408l-9.512 9.513-9.51-9.513a.447.447 0 0 0-.632.632l9.828 9.828a.447.447 0 0 0 .632 0l9.828-9.828a.447.447 0 1 0-.621-.643l-.011.011z" transform="translate(0 -117.272) translate(-.02)"/>
        <path fill="#383838" d="M10.269 128a.447.447 0 0 1-.316-.13l-9.828-9.828a.447.447 0 0 1 .632-.632l9.513 9.512 9.512-9.513a.447.447 0 0 1 .643.621l-.011.011-9.828 9.828a.447.447 0 0 1-.317.131z" transform="translate(0 -117.272) translate(0 -.001)"/>
    </g>
</svg>
